<?xml version="1.0" encoding="UTF-8" standalone="no"?>
<svg
   xmlns:dc="http://purl.org/dc/elements/1.1/"
   xmlns:cc="http://creativecommons.org/ns#"
   xmlns:rdf="http://www.w3.org/1999/02/22-rdf-syntax-ns#"
   xmlns:svg="http://www.w3.org/2000/svg"
   xmlns="http://www.w3.org/2000/svg"
   xmlns:sodipodi="http://sodipodi.sourceforge.net/DTD/sodipodi-0.dtd"
   xmlns:inkscape="http://www.inkscape.org/namespaces/inkscape"
   version="1.1"
   id="svg2"
   xml:space="preserve"
   width="1365.3333"
   height="1024"
   viewBox="0 0 1365.3333 1024"
   sodipodi:docname="UchihaItachi_blow91.ai"><metadata
     id="metadata8"><rdf:RDF><cc:Work
         rdf:about=""><dc:format>image/svg+xml</dc:format><dc:type
           rdf:resource="http://purl.org/dc/dcmitype/StillImage" /></cc:Work></rdf:RDF></metadata><defs
     id="defs6"><clipPath
       clipPathUnits="userSpaceOnUse"
       id="clipPath18"><path
         d="M 0,768 H 1024 V 0 H 0 Z"
         id="path16" /></clipPath><clipPath
       clipPathUnits="userSpaceOnUse"
       id="clipPath142"><path
         d="m 611.509,479.238 c 0,0 -4.134,-17.363 -3.009,-18.613 v 0 c 1.125,-1.25 34.525,-5.163 34.525,-5.163 v 0 c 2.274,-0.913 17.265,-0.883 17.265,-0.883 v 0 l 1.231,0.247 8.729,2.29 c 0,0 35.5,20.884 15.097,23.809 v 0 c -4.913,0.705 -11.739,0.972 -19.277,0.972 v 0 c -23.761,0 -54.561,-2.659 -54.561,-2.659"
         id="path140" /></clipPath><clipPath
       clipPathUnits="userSpaceOnUse"
       id="clipPath166"><path
         d="m 636.55,487.663 h 20.012 V 452.29 H 636.55 Z"
         id="path164" /></clipPath><clipPath
       clipPathUnits="userSpaceOnUse"
       id="clipPath182"><path
         d="M 0,768 H 1024 V 0 H 0 Z"
         id="path180" /></clipPath><clipPath
       clipPathUnits="userSpaceOnUse"
       id="clipPath206"><path
         d="m 360.716,494.165 0.618,-29.883 c 0,0 13.915,-0.99 19.04,-0.562 v 0 c 5.126,0.43 40.492,-0.64 54.122,2.34 v 0 c 0,0 20.714,1.317 25.512,0.868 v 0 c 0.366,-0.034 0.641,-0.078 0.805,-0.135 v 0 c 2.312,-0.793 -21.688,14.926 -21.688,14.926 v 0 l -6.977,5.759 c 0,0 1.096,3.288 -52.776,6.961 v 0 c -17.104,1.167 -25.228,1.565 -28.35,1.565 v 0 c -6.71,0 9.694,-1.839 9.694,-1.839"
         id="path204" /></clipPath><clipPath
       clipPathUnits="userSpaceOnUse"
       id="clipPath230"><path
         d="m 402.549,498.815 h 20.013 v -37.398 h -20.013 z"
         id="path228" /></clipPath><clipPath
       clipPathUnits="userSpaceOnUse"
       id="clipPath246"><path
         d="M 0,768 H 1024 V 0 H 0 Z"
         id="path244" /></clipPath></defs><sodipodi:namedview
     pagecolor="#ffffff"
     bordercolor="#666666"
     borderopacity="1"
     objecttolerance="10"
     gridtolerance="10"
     guidetolerance="10"
     inkscape:pageopacity="0"
     inkscape:pageshadow="2"
     inkscape:window-width="640"
     inkscape:window-height="480"
     id="namedview4" /><g
     id="g10"
     inkscape:groupmode="layer"
     inkscape:label="UchihaItachi_blow91"
     transform="matrix(1.3333333,0,0,-1.3333333,0,1024)"><g
       id="g12"><g
         id="g14"
         clip-path="url(#clipPath18)"><g
           id="g20"
           transform="translate(459.3643,724)"><path
             d="m 0,0 c 0,0 179.706,-3.636 201.636,-12.23 l -43,56.23 h -146 C 12.636,44 1.271,4.462 0,0"
             style="fill:#1e1e1e;fill-opacity:1;fill-rule:nonzero;stroke:none"
             id="path22" /></g><g
           id="g24"
           transform="translate(512,768)"><path
             d="m 0,0 29.5,-44 c 0,0 34,44 35.5,44 H 46.5 L 30,-32.5 11,0 H -2.5"
             style="fill:#4c5457;fill-opacity:1;fill-rule:nonzero;stroke:none"
             id="path26" /></g><g
           id="g28"
           transform="translate(459.3643,724)"><path
             d="m 0,0 -3.188,-11.342 c 0,0 13.574,4.592 82.074,2.092 68.5,-2.5 98.994,-6.471 103.82,-10.5 4.826,-4.029 0,1.75 0,1.75 0,0 5.77,7.436 4.93,9.333 C 186.796,-6.77 72.697,2 0,0"
             style="fill:#4c5457;fill-opacity:1;fill-rule:nonzero;stroke:none"
             id="path30" /></g><g
           id="g32"
           transform="translate(459.3643,724)"><path
             d="m 0,0 -3.188,-11.342 c 0,0 13.574,4.592 82.074,2.092 68.5,-2.5 98.994,-6.471 103.82,-10.5 4.826,-4.029 0,1.75 0,1.75 0,0 5.77,7.436 4.93,9.333 C 186.796,-6.77 72.697,2 0,0 Z"
             style="fill:none;stroke:#010a0c;stroke-width:2;stroke-linecap:butt;stroke-linejoin:miter;stroke-miterlimit:4;stroke-dasharray:none;stroke-opacity:1"
             id="path34" /></g><g
           id="g36"
           transform="translate(635.5908,706.75)"><path
             d="m 0,0 c 0,0 21.216,-87.583 6.479,-153.5 l 66.597,-11.25 -13.667,79 -33.285,3.375 c 0,0 -2.735,79.875 -9.215,82.375 C 10.43,2.5 0,0 0,0"
             style="fill:#757a7d;fill-opacity:1;fill-rule:nonzero;stroke:none"
             id="path38" /></g><g
           id="g40"
           transform="translate(635.5908,706.75)"><path
             d="m 0,0 c 0,0 -112.915,16.578 -182.091,6.809 -69.176,-9.77 -31.5,12.879 -31.5,12.879 h -19.897 c 0,0 -29.686,-100.043 -37.228,-169.574 v -2.531 c 0,0 208.125,14.834 254.125,-1.083 h 23.07 c 0,0 20.112,32.583 -6.479,153.5"
             style="fill:#b6bcbc;fill-opacity:1;fill-rule:nonzero;stroke:none"
             id="path42" /></g><g
           id="g44"
           transform="translate(595.0957,711.7695)"><path
             d="M 0,0 1.904,-8.947 0,-154.77 c 0,0 14.404,-0.75 25.654,-3.75 h 12.5 c 0,0 -0.068,152.75 2.341,153.5 0,0 -37.399,4.792 -40.495,5.02"
             style="fill:#f3faf2;fill-opacity:1;fill-rule:nonzero;stroke:none"
             id="path46" /></g><g
           id="g48"
           transform="translate(583,680)"><path
             d="M 0,0 3.667,-3 -12,-18 c 0,0 2.333,-5.333 -11.667,5.667 -14,11 -55.333,9 -61.333,-23.334 -6,-32.333 13.333,-38.666 14,-42.666 0.667,-4 49.166,-16.167 49.833,24.833 0,0 2.168,19.833 -17.166,26.167 -19.334,6.333 -26.834,-14.667 -23.167,-20 0,0 1.499,-7.667 9.333,-6.334 7.834,1.334 9.666,4.333 7.5,8.5 -2.166,4.167 5.334,6.334 5.334,6.334 0,0 9.666,-3.834 -3.334,-16.5 -13,-12.667 -21.999,5.833 -22.666,5.333 -0.667,-0.5 -9.5,30.333 29,28.5 0,0 40,-16.667 13.333,-54.667 0,0 -30.334,-30 -94,1.5 0,0 20.667,30 18.667,29 l 7.833,10.834 c 0,0 17,56.833 74.5,22.666 0,0 4.667,-2.5 12.167,9 z"
             style="fill:#404445;fill-opacity:1;fill-rule:nonzero;stroke:none"
             id="path50" /></g><g
           id="g52"
           transform="translate(583,680)"><path
             d="M 0,0 3.667,-3 -12,-18 c 0,0 2.333,-5.333 -11.667,5.667 -14,11 -55.333,9 -61.333,-23.334 -6,-32.333 13.333,-38.666 14,-42.666 0.667,-4 49.166,-16.167 49.833,24.833 0,0 2.168,19.833 -17.166,26.167 -19.334,6.333 -26.834,-14.667 -23.167,-20 0,0 1.499,-7.667 9.333,-6.334 7.834,1.334 9.666,4.333 7.5,8.5 -2.166,4.167 5.334,6.334 5.334,6.334 0,0 9.666,-3.834 -3.334,-16.5 -13,-12.667 -21.999,5.833 -22.666,5.333 -0.667,-0.5 -9.5,30.333 29,28.5 0,0 40,-16.667 13.333,-54.667 0,0 -30.334,-30 -94,1.5 0,0 20.667,30 18.667,29 l 7.833,10.834 c 0,0 17,56.833 74.5,22.666 0,0 4.667,-2.5 12.167,9 z"
             style="fill:none;stroke:#000607;stroke-width:1;stroke-linecap:butt;stroke-linejoin:miter;stroke-miterlimit:4;stroke-dasharray:none;stroke-opacity:1"
             id="path54" /></g><g
           id="g56"
           transform="translate(489.667,629.6665)"><path
             d="m 0,0 c 0,0 -16.667,-20.833 -14.667,-23 2,-2.167 27.182,-10.617 34.5,-9.167 7.318,1.451 0.667,-0.166 0.667,-0.166 0,0 -10,4.5 -20.5,32.333"
             style="fill:#b6bcbc;fill-opacity:1;fill-rule:nonzero;stroke:none"
             id="path58" /></g><g
           id="g60"
           transform="translate(489.667,629.6665)"><path
             d="m 0,0 c 0,0 -16.667,-20.833 -14.667,-23 2,-2.167 27.182,-10.617 34.5,-9.167 7.318,1.451 0.667,-0.166 0.667,-0.166 0,0 -10,4.5 -20.5,32.333 z"
             style="fill:none;stroke:#000607;stroke-width:1;stroke-linecap:butt;stroke-linejoin:miter;stroke-miterlimit:4;stroke-dasharray:none;stroke-opacity:1"
             id="path62" /></g><g
           id="g64"
           transform="translate(392.3843,680)"><path
             d="m 0,0 c 0,0 5.616,-16.312 4.616,-40.156 -1,-23.844 16.548,-80.87 20.048,-82.096 l -52.173,-3.415 c 0,0 5.393,60.167 27.509,125.667"
             style="fill:#757a7d;fill-opacity:1;fill-rule:nonzero;stroke:none"
             id="path66" /></g><g
           id="g68"
           transform="translate(378,637.5)"><path
             d="M 0,0 C 0,0 172.834,9 208.667,0.5 L 283,-5.5 V -10 c 0,0 -145.741,13.777 -217.871,7.139 L 0.096,-4.787 Z"
             style="fill:#727677;fill-opacity:1;fill-rule:nonzero;stroke:none"
             id="path70" /></g><g
           id="g72"
           transform="translate(378,637.5)"><path
             d="M 0,0 C 0,0 172.834,9 208.667,0.5 L 283,-5.5 V -10 c 0,0 -145.741,13.777 -217.871,7.139 L 0.096,-4.787 Z"
             style="fill:none;stroke:#000000;stroke-width:1;stroke-linecap:butt;stroke-linejoin:miter;stroke-miterlimit:4;stroke-dasharray:none;stroke-opacity:1"
             id="path74" /></g><g
           id="g76"
           transform="translate(361.3335,553.25)"><path
             d="m 0,0 v -4.31 c 0,0 234.833,19.56 356.31,-11.172 l -2.936,8.477 -81.457,8.12 -14.417,1.635 -23.738,1 C 233.762,3.75 145.784,14.25 0,0"
             style="fill:#747b83;fill-opacity:1;fill-rule:nonzero;stroke:none"
             id="path78" /></g><g
           id="g80"
           transform="translate(361.3335,553.25)"><path
             d="m 0,0 v -4.31 c 0,0 234.833,19.56 356.31,-11.172 l -2.936,8.477 -81.457,8.12 -14.417,1.635 -23.738,1 C 233.762,3.75 145.784,14.25 0,0 Z"
             style="fill:none;stroke:#050000;stroke-width:1;stroke-linecap:butt;stroke-linejoin:miter;stroke-miterlimit:4;stroke-dasharray:none;stroke-opacity:1"
             id="path82" /></g><g
           id="g84"
           transform="translate(362.2163,510)"><path
             d="M 0,0 C 0,0 65.784,-3.667 68.784,-4.833 71.784,-6 94.117,-22 94.117,-22"
             style="fill:none;stroke:#0b0001;stroke-width:2;stroke-linecap:butt;stroke-linejoin:miter;stroke-miterlimit:10;stroke-dasharray:none;stroke-opacity:1"
             id="path86" /></g><g
           id="g88"
           transform="translate(452.9287,518.3574)"><path
             d="m 0,0 c 0,0 136.073,4.531 156.197,-1.288 l 25.138,10.335 c 0,0 -31.723,8.82 -212.472,2.07 0,0 24.816,-10.26 31.137,-11.117"
             style="fill:#d6b08c;fill-opacity:1;fill-rule:nonzero;stroke:none"
             id="path90" /></g><g
           id="g92"
           transform="translate(322.6665,420.333)"><path
             d="m 0,0 c 0,0 -6,-140.333 0,-162.333 0,0 77.87,-103.332 190.268,-122.666 0,0 144.387,37.566 191.726,193.45 0,0 14.423,72.299 10.006,85.882 0,0 -16.204,-23.664 -27.833,-45.666 -9.908,-18.746 -7.2,-18.115 -9.5,-18 -5,0.25 30.487,50.67 26.077,164.835 0,0 -74.312,29.557 -341.194,10.861 -266.883,-18.695 -1.5,-0.083 -1.5,-0.083 0,0 -2.782,-51.654 0.476,-107.19 3.528,-60.145 13.449,-124.844 22.807,-133.423 18,-16.5 1.345,-1.56 1.345,-1.56 0,0 -36.297,52.83 -38.011,58.226 C 22.953,-72.271 0,0 0,0"
             style="fill:#ead0b7;fill-opacity:1;fill-rule:nonzero;stroke:none"
             id="path94" /></g><g
           id="g96"
           transform="translate(654.75,498.25)"><path
             d="M 0,0 C 0,0 -41.5,-1.881 -56.25,-9.565 L -71.833,-24.5"
             style="fill:none;stroke:#0b0001;stroke-width:2;stroke-linecap:butt;stroke-linejoin:miter;stroke-miterlimit:10;stroke-dasharray:none;stroke-opacity:1"
             id="path98" /></g><g
           id="g100"
           transform="translate(481.3335,488)"><path
             d="m 0,0 c 0,0 16.417,-18.48 2.312,-35.333 0,0 -46.645,-62 -48.312,-68.667"
             style="fill:none;stroke:#0b0001;stroke-width:2;stroke-linecap:butt;stroke-linejoin:miter;stroke-miterlimit:10;stroke-dasharray:none;stroke-opacity:1"
             id="path102" /></g><g
           id="g104"
           transform="translate(422.019,529.4746)"><path
             d="m 0,0 c 0,0 59.314,-21.309 59.981,-21.642 0.667,-0.333 2.333,-0.666 1.333,-2.666 h -5.333 c 0,0 -10.834,1.166 -26,6.166 0,0 -44.504,17.59 -49.668,17.366 z"
             style="fill:#0b0001;fill-opacity:1;fill-rule:nonzero;stroke:none"
             id="path106" /></g><g
           id="g108"
           transform="translate(552.875,477.875)"><path
             d="m 0,0 12.125,2.792 1.9,-1.565 c 0,0 -6.784,-11.019 -5.008,-15.498 1.775,-4.479 21.025,-36.104 21.025,-36.104 l -1.25,29.06 2.833,4.558 -1.532,9.548 c 0,0 11.47,11.834 32.376,17.334 0,0 79.634,2.75 87.384,0 l 5.939,29.069 c 0,0 -44.569,10.514 -74.403,12.181 0,0 -16.49,-13.791 -46.42,-29.701 L 17.375,19.875 Z"
             style="fill:#d6b08c;fill-opacity:1;fill-rule:nonzero;stroke:none"
             id="path110" /></g><g
           id="g112"
           transform="translate(634.2637,527.4043)"><path
             d="m 0,0 c 0,0 -30.514,-12.404 -62.264,-25.904 0,0 -14.5,-9.75 -21.25,-23 0,0 -1.75,-5 -2,-18.25 l 1.75,-1.125 2.375,18.75 17.375,19.875 c 0,0 13.417,3.25 16.417,1.25 0,0 29.333,13.652 31,14.992 l 32.333,12.008 z"
             style="fill:#0b0001;fill-opacity:1;fill-rule:nonzero;stroke:none"
             id="path114" /></g><g
           id="g116"
           transform="translate(574,488)"><path
             d="M 0,0 C 0,0 -18,-18.083 -10.333,-28.875 -2.666,-39.667 37.666,-112.666 35,-117"
             style="fill:none;stroke:#0b0001;stroke-width:2;stroke-linecap:butt;stroke-linejoin:miter;stroke-miterlimit:10;stroke-dasharray:none;stroke-opacity:1"
             id="path118" /></g><g
           id="g120"
           transform="translate(584.418,461.6284)"><path
             d="m 0,0 c 0,0 2.457,5.872 15.832,9.372 13.375,3.5 0,-0.5 0,-0.5 0,0 76.699,4.627 85.6,-5.999 l 15.594,11.832 -0.444,2.769 c 0,0 -10.415,4.102 -91.874,0 L -1.501,7.891 c 0,0 -1.331,-9.013 1.501,-7.891"
             style="fill:#cac4b8;fill-opacity:1;fill-rule:nonzero;stroke:none"
             id="path122" /></g><g
           id="g124"
           transform="translate(584.418,461.6284)"><path
             d="m 0,0 c 0,0 4.676,9.241 23.316,9.244 18.641,0.003 63.752,3.476 78.509,-6.073 0,0 -7.538,-8.046 -13.453,-8.923 C 82.457,-6.628 54.229,-9.014 39.968,-3.696 39.968,-3.696 8.043,1.878 0,0"
             style="fill:#faf0e7;fill-opacity:1;fill-rule:nonzero;stroke:none"
             id="path126" /></g><g
           id="g128"
           transform="translate(701,488)"><path
             d="M 0,0 C 0,0 -81.248,1.999 -88.592,-0.834 -95.936,-3.667 -107,-8 -117.333,-15.667 c 0,0 -3,-5.002 3,-1.667 6,3.334 22.459,8.436 22.459,8.436 0,0 55.54,5.769 91.874,0 0,0 1,5.565 0,8.898"
             style="fill:#020001;fill-opacity:1;fill-rule:nonzero;stroke:none"
             id="path130" /></g><g
           id="g132"
           transform="translate(584.5,461.1182)"><path
             d="m 0,0 0.946,-1.993 c 0,0 19.492,-0.875 29.898,-2.625 0,0 23.765,-5.259 39.406,-5.009 l 0.25,3.088 c 0,0 -26.75,1.921 -35.75,4.546 C 34.75,-1.993 3.5,1.868 0,0"
             style="fill:#050503;fill-opacity:1;fill-rule:nonzero;stroke:none"
             id="path134" /></g></g></g><g
       id="g136"><g
         id="g138"
         clip-path="url(#clipPath142)"><g
           id="g144"
           transform="translate(661.2803,472.7329)"><path
             d="m 0,0 c 1.896,-13.677 -7.653,-26.303 -21.331,-28.2 -13.678,-1.896 -26.303,7.653 -28.2,21.33 -1.897,13.678 7.653,26.304 21.331,28.201 C -14.523,23.229 -1.897,13.678 0,0"
             style="fill:#bf0000;fill-opacity:1;fill-rule:nonzero;stroke:none"
             id="path146" /></g><g
           id="g148"
           transform="translate(661.2803,472.7329)"><path
             d="m 0,0 c 1.896,-13.677 -7.653,-26.303 -21.331,-28.2 -13.678,-1.896 -26.303,7.653 -28.2,21.33 -1.897,13.678 7.653,26.304 21.331,28.201 C -14.523,23.229 -1.897,13.678 0,0 Z"
             style="fill:none;stroke:#000000;stroke-width:3;stroke-linecap:butt;stroke-linejoin:miter;stroke-miterlimit:10;stroke-dasharray:none;stroke-opacity:1"
             id="path150" /></g><g
           id="g152"
           transform="translate(630.0244,486.1074)"><path
             d="m 0,0 c 0,0 -17.283,-8.031 -14.208,-30.206 0.504,-3.629 0.524,0.073 0.524,0.073 0,0 -2.658,-6.794 10.797,0.005 0,0 10.215,4.403 10.42,5.232 l 10.069,-2.043 c 0,0 -6.961,-11.972 -20.835,-4.209 -13.875,7.762 -2.394,1.353 -2.394,1.353 l -1.229,-0.869 c 0,0 7.98,-6.268 18.617,-4.792 0,0 11.467,-0.009 18.505,10.122 0,0 -13.099,11.781 -17.424,13.492 0,0 -2.365,9.359 -3.707,10.061 0,0 13.339,1.229 14.521,-16.914 0,0 2.464,-7.62 0.627,3.408 -0.682,4.104 -0.42,2.308 -0.42,2.308 0,0 -2.344,19.315 -22.16,20.566 0,0 -0.769,-2.773 -1.51,-7.367 -0.581,-3.615 -1.143,-8.358 -1.297,-13.765 -10e-4,-0.077 -0.004,-0.155 -0.007,-0.232 l -7.229,-8.112 c 0,0 -4.975,14.234 7.467,20.499 12.443,6.265 1.403,0.639 1.403,0.639"
             style="fill:#020001;fill-opacity:1;fill-rule:nonzero;stroke:none"
             id="path154" /></g><g
           id="g156"
           transform="translate(641.4609,470.0322)"><path
             d="m 0,0 c 0.377,-2.718 -1.521,-5.228 -4.24,-5.605 -2.72,-0.377 -5.23,1.522 -5.608,4.24 -0.376,2.719 1.522,5.229 4.242,5.606 C -2.888,4.618 -0.378,2.719 0,0"
             style="fill:#bf0000;fill-opacity:1;fill-rule:nonzero;stroke:none"
             id="path158" /></g><g
           id="g160"><g
             id="g162" /><g
             id="g174"><g
               clip-path="url(#clipPath166)"
               opacity="0.25"
               id="g172"><g
                 transform="translate(646.8848,487.6626)"
                 id="g170"><path
                   d="m 0,0 c 0,0 0.118,-0.392 0.281,-1.043 0.85,-3.395 2.938,-13.833 -3.942,-12.554 -8.197,1.525 -9.686,-13.341 0.312,-15.051 9.999,-1.71 -1.676,-4.452 -3.835,-5.404 -2.157,-0.951 9.547,-3.779 15.388,3.688 5.843,7.466 -7.45,9.302 -9.468,10.066 -2.016,0.764 9.554,10.721 8.226,13.215"
                   style="fill:#ffffff;fill-opacity:1;fill-rule:nonzero;stroke:none"
                   id="path168" /></g></g></g></g></g></g><g
       id="g176"><g
         id="g178"
         clip-path="url(#clipPath182)"><g
           id="g184"
           transform="translate(460.1152,466.1616)"><path
             d="m 0,0 c -6.635,-2.338 -76.865,-4.162 -76.865,-4.162 l -1.25,-2.875 h -21.371 l 0.088,5.085 c 0,0 -20.717,3.04 0.616,0.79 21.334,-2.25 65.917,1 69.917,1.162 4,0.162 16.75,2.338 24,1.588 7.25,-0.75 5.333,0.333 5.333,0.333"
             style="fill:#040402;fill-opacity:1;fill-rule:nonzero;stroke:none"
             id="path186" /></g><g
           id="g188"
           transform="translate(361.3335,478)"><path
             d="m 0,0 c 0,0 64.583,8.416 95,-9.917 h 5.292 c 0,0 13.543,5.181 -39.541,22.215 0,0 -51.982,7.925 -61.367,2.98 z"
             style="fill:#b8baac;fill-opacity:1;fill-rule:nonzero;stroke:none"
             id="path190" /></g><g
           id="g192"
           transform="translate(361.3335,503.6665)"><path
             d="m 0,0 -0.617,-10.402 c 0,0 49.95,2.069 69.95,-5.265 20,-7.333 28.085,-12.666 31.876,-17.333 0,0 9.791,-0.333 -9.876,12 C 71.667,-8.667 51.333,-1.667 45,-1.667 38.667,-1.667 0,0 0,0"
             style="fill:#060200;fill-opacity:1;fill-rule:nonzero;stroke:none"
             id="path194" /></g><g
           id="g196"
           transform="translate(361.3335,478)"><path
             d="m 0,0 0.883,-13.088 c 0,0 43.641,-1.607 60.4,0.74 0,0 34.356,3.272 37.495,1.872 3.139,-1.399 0.701,-0.149 0.701,-0.149 L 95,-9.917 C 95,-9.917 65.333,8.75 0,0"
             style="fill:#faefe9;fill-opacity:1;fill-rule:nonzero;stroke:none"
             id="path198" /></g></g></g><g
       id="g200"><g
         id="g202"
         clip-path="url(#clipPath206)"><g
           id="g208"
           transform="translate(427.2803,483.0303)"><path
             d="m 0,0 c 1.896,-14.46 -7.653,-27.809 -21.331,-29.814 -13.678,-2.005 -26.303,8.09 -28.2,22.551 -1.897,14.461 7.653,27.81 21.331,29.815 C -14.523,24.558 -1.897,14.461 0,0"
             style="fill:#bf0000;fill-opacity:1;fill-rule:nonzero;stroke:none"
             id="path210" /></g><g
           id="g212"
           transform="translate(427.2803,483.0303)"><path
             d="m 0,0 c 1.896,-14.46 -7.653,-27.809 -21.331,-29.814 -13.678,-2.005 -26.303,8.09 -28.2,22.551 -1.897,14.461 7.653,27.81 21.331,29.815 C -14.523,24.558 -1.897,14.461 0,0 Z"
             style="fill:none;stroke:#000000;stroke-width:3;stroke-linecap:butt;stroke-linejoin:miter;stroke-miterlimit:10;stroke-dasharray:none;stroke-opacity:1"
             id="path214" /></g><g
           id="g216"
           transform="translate(396.0244,497.1704)"><path
             d="m 0,0 c 0,0 -17.283,-8.491 -14.208,-31.935 0.504,-3.837 0.524,0.077 0.524,0.077 0,0 -2.658,-7.183 10.797,0.005 0,0 10.215,4.655 10.42,5.531 l 10.069,-2.159 c 0,0 -6.961,-12.658 -20.835,-4.45 -13.875,8.206 -2.394,1.43 -2.394,1.43 l -1.229,-0.918 c 0,0 7.98,-6.626 18.617,-5.067 0,0 11.467,-0.009 18.505,10.701 0,0 -13.099,12.456 -17.424,14.265 0,0 -2.365,9.895 -3.707,10.638 0,0 13.339,1.299 14.521,-17.883 0,0 2.464,-8.057 0.627,3.603 -0.682,4.339 -0.42,2.44 -0.42,2.44 0,0 -2.344,20.422 -22.16,21.744 0,0 -0.769,-2.932 -1.51,-7.79 -0.581,-3.821 -1.143,-8.836 -1.297,-14.552 -10e-4,-0.082 -0.004,-0.164 -0.007,-0.245 l -7.229,-8.577 c 0,0 -4.975,15.048 7.467,21.672 12.443,6.624 1.403,0.677 1.403,0.677"
             style="fill:#020001;fill-opacity:1;fill-rule:nonzero;stroke:none"
             id="path218" /></g><g
           id="g220"
           transform="translate(407.4609,480.1753)"><path
             d="m 0,0 c 0.377,-2.874 -1.521,-5.528 -4.24,-5.927 -2.72,-0.398 -5.23,1.61 -5.608,4.483 -0.376,2.875 1.522,5.528 4.242,5.927 C -2.888,4.882 -0.378,2.875 0,0"
             style="fill:#bf0000;fill-opacity:1;fill-rule:nonzero;stroke:none"
             id="path222" /></g><g
           id="g224"><g
             id="g226" /><g
             id="g238"><g
               clip-path="url(#clipPath230)"
               opacity="0.25"
               id="g236"><g
                 transform="translate(412.8848,498.8149)"
                 id="g234"><path
                   d="m 0,0 c 0,0 0.118,-0.415 0.281,-1.104 0.85,-3.587 2.938,-14.624 -3.942,-13.271 -8.197,1.612 -9.686,-14.104 0.312,-15.913 9.999,-1.809 -1.676,-4.707 -3.835,-5.713 -2.157,-1.006 9.547,-3.996 15.388,3.898 5.843,7.894 -7.45,9.835 -9.468,10.643 -2.016,0.807 9.554,11.335 8.226,13.972"
                   style="fill:#ffffff;fill-opacity:1;fill-rule:nonzero;stroke:none"
                   id="path232" /></g></g></g></g></g></g><g
       id="g240"><g
         id="g242"
         clip-path="url(#clipPath246)"><g
           id="g248"
           transform="translate(483.6455,507)"><path
             d="m 0,0 h 2.104 c 0,0 11.875,-25 12,-26.75 0,0 -10.846,5.733 -10.5,4 1.417,-7.083 1.548,-22.333 0.387,-25.125 -1.161,-2.792 -37.518,-52.208 -37.518,-52.208 l -2.32,-3.292 c 0,0 0.368,13.708 2.868,16.708 0,0 11.666,23.125 13.333,34.979 0,0 3.418,4.188 -1.457,10.021 l -0.793,5.333 c 0,0 0.901,0.479 1.421,1.688 0.52,1.21 4.542,-0.259 -5.814,7.235 0,0 -31.065,20.411 -51.023,22.411 l -45,1.667 -2.167,22.833 c 0,0 1.67,0.165 11.518,0.678 9.848,0.513 -0.185,0.822 -0.185,0.822 l 31.833,0.699 c 0,0 2.374,-0.239 6.115,-1.402 9.603,-2.986 27.995,-9.351 36.738,-13.304 12.148,-5.493 29.815,-8.826 33.981,-8.826 4.167,0 4.805,-0.428 4.382,1.578"
             style="fill:#d6b08c;fill-opacity:1;fill-rule:nonzero;stroke:none"
             id="path250" /></g><g
           id="g252"
           transform="translate(505.3335,332.333)"><path
             d="m 0,0 c 0,0 -1.333,9 20.667,11 0,0 18,1.333 25.666,-5.5 0,0 6.667,-7.5 -9.333,-19.833 0,0 -12.304,-5.999 -13.152,-5.333 l 0.848,-0.666 c 0,0 -22.029,7.665 -24.696,20.332"
             style="fill:#d6b08c;fill-opacity:1;fill-rule:nonzero;stroke:none"
             id="path254" /></g><g
           id="g256"
           transform="translate(514,334.1143)"><path
             d="M 0,0 C 0,0 0.667,5.22 8.667,4.553"
             style="fill:none;stroke:#0b0001;stroke-width:2;stroke-linecap:butt;stroke-linejoin:miter;stroke-miterlimit:10;stroke-dasharray:none;stroke-opacity:1"
             id="path258" /></g><g
           id="g260"
           transform="translate(540,330.667)"><path
             d="M 0,0 5,8.059"
             style="fill:none;stroke:#0b0001;stroke-width:2;stroke-linecap:butt;stroke-linejoin:miter;stroke-miterlimit:10;stroke-dasharray:none;stroke-opacity:1"
             id="path262" /></g><g
           id="g264"
           transform="translate(549,380.166)"><path
             d="m 0,0 v 6.667 c 0,0 -2.667,3.667 -3,-1.667 l -1,0.334 v -24.667 h 0.834 c 0,0 -0.833,-10.501 4.25,-3.417 L 0.75,-1.25 V 0 Z"
             style="fill:#fef4db;fill-opacity:1;fill-rule:nonzero;stroke:none"
             id="path266" /></g><g
           id="g268"
           transform="translate(322.6665,420.333)"><path
             d="m 0,0 c 0,0 -6.837,-43.604 -7.667,-85.637 -0.635,-32.19 4.109,-63.331 7,-74.029 6.667,-24.667 156.5,-152.667 213.5,-118.667 0,0 131.5,60 160.5,162 0,0 15.349,22.666 19.508,114 l -18.508,-38 -5.329,-49.333 L 354,-123 c 0,0 -64.667,-132.665 -154,-143.999 0,0 -49.45,-4.668 -113.392,42.666 -63.941,47.334 -85.941,124.059 -77.941,138.696 l 36.666,-52.029 -13.604,48 C 31.729,-89.666 0,-6.334 0,0"
             style="fill:#d6b08c;fill-opacity:1;fill-rule:nonzero;stroke:none"
             id="path270" /></g><g
           id="g272"
           transform="translate(692.875,464.375)"><path
             d="m 0,0 c 0,0 -15.375,-100.875 -28.375,-106.375 0,0 12.859,6 17.43,22.5 l 4.313,3.5 c 0,0 19.257,67.5 14.007,87.75 z"
             style="fill:#d6b08c;fill-opacity:1;fill-rule:nonzero;stroke:none"
             id="path274" /></g><g
           id="g276"
           transform="translate(463.1709,273)"><path
             d="m 0,0 32.996,10.999 56.878,-1 L 105.496,0"
             style="fill:none;stroke:#000407;stroke-width:2;stroke-linecap:butt;stroke-linejoin:miter;stroke-miterlimit:10;stroke-dasharray:none;stroke-opacity:1"
             id="path278" /></g><g
           id="g280"
           transform="translate(492.3335,261.999)"><path
             d="m 0,0 c 0,0 -5.333,-9.167 24.333,-14 0,0 24.084,-1.687 28.521,10.001 4.438,11.687 0,0.812 0,0.812 z"
             style="fill:#d6af8e;fill-opacity:1;fill-rule:nonzero;stroke:none"
             id="path282" /></g><g
           id="g284"
           transform="translate(493,261.999)"><path
             d="M 0,0 C 0,0 46.166,-0.166 53.333,-2.666"
             style="fill:none;stroke:#000407;stroke-width:2;stroke-linecap:butt;stroke-linejoin:miter;stroke-miterlimit:10;stroke-dasharray:none;stroke-opacity:1"
             id="path286" /></g><g
           id="g288"
           transform="translate(318.2002,268.999)"><path
             d="m 0,0 -10.2,-60.333 c 0,0 60,8.666 55.333,-4 -4.666,-12.666 1.167,-2.666 1.167,-2.666 l 0.444,-198 v -4 h 325.723 c 0,0 -58.666,29.999 -92.666,64.666 l 24.666,134 c 0,0 -78.986,-69.039 -121.917,-59.666 C 139.619,-120.626 64.721,-83.333 0,0"
             style="fill:#ead2ba;fill-opacity:1;fill-rule:nonzero;stroke:none"
             id="path290" /></g><g
           id="g292"
           transform="translate(318.2002,268.999)"><path
             d="m 0,0 -10.2,-60.333 c 0,0 60,8.666 55.333,-4 -4.666,-12.666 1.167,-2.666 1.167,-2.666 l 0.444,-198 v -4 h 325.723 c 0,0 -58.666,29.999 -92.666,64.666 l 24.666,134 c 0,0 -78.986,-69.039 -121.917,-59.666 C 139.619,-120.626 64.721,-83.333 0,0 Z"
             style="fill:none;stroke:#02090f;stroke-width:3;stroke-linecap:butt;stroke-linejoin:miter;stroke-miterlimit:4;stroke-dasharray:none;stroke-opacity:1"
             id="path294" /></g><g
           id="g296"
           transform="translate(701.4443,476.333)"><path
             d="m 0,0 -9.444,-5.667 c 0,0 -10.856,-12.406 -19.871,-15 h -8.172 l -1.541,-4.693 14.584,-4.973 c 0,0 4.75,-1.25 -1,5.25 l 5.929,2 11.571,0.75 c 0,0 3.871,2.833 -8.75,2.25 l 15.5,15.5 z"
             style="fill:#050503;fill-opacity:1;fill-rule:nonzero;stroke:none"
             id="path298" /></g><g
           id="g300"
           transform="translate(786.333,344)"><path
             d="M 0,0 C 0,0 152,-36.334 150,-76.667 148,-117 113.667,-265.904 85.667,-343.952 H -78.999 c 0,0 -41.331,-7.383 -109.998,67.951 l 25.331,130.667 c 0,0 65.647,59.766 78.49,119.3 C -72.333,33.5 -55.333,6 -55.333,6 Z"
             style="fill:#7d221d;fill-opacity:1;fill-rule:nonzero;stroke:none"
             id="path302" /></g><g
           id="g304"
           transform="translate(786.333,344)"><path
             d="M 0,0 C 0,0 152,-36.334 150,-76.667 148,-117 113.667,-265.904 85.667,-343.952 H -78.999 c 0,0 -41.331,-7.383 -109.998,67.951 l 25.331,130.667 c 0,0 65.647,59.766 78.49,119.3 C -72.333,33.5 -55.333,6 -55.333,6 Z"
             style="fill:none;stroke:#000000;stroke-width:3;stroke-linecap:butt;stroke-linejoin:miter;stroke-miterlimit:4;stroke-dasharray:none;stroke-opacity:1"
             id="path306" /></g><g
           id="g308"
           transform="translate(195.4956,352.3633)"><path
             d="m 0,0 c 0,0 -269.333,-68.213 -146.914,-105.038 122.418,-36.825 168.418,-56.825 168.418,-56.825 l 54.5,5.5 -44,140.725 z"
             style="fill:#7d221d;fill-opacity:1;fill-rule:nonzero;stroke:none"
             id="path310" /></g><g
           id="g312"
           transform="translate(195.4956,352.3633)"><path
             d="m 0,0 c 0,0 -269.333,-68.213 -146.914,-105.038 122.418,-36.825 168.418,-56.825 168.418,-56.825 l 54.5,5.5 -44,140.725 z"
             style="fill:none;stroke:#000000;stroke-width:4;stroke-linecap:butt;stroke-linejoin:miter;stroke-miterlimit:4;stroke-dasharray:none;stroke-opacity:1"
             id="path314" /></g><g
           id="g316"
           transform="translate(198.5,352.5)"><path
             d="m 0,0 c 0,0 -243.5,-55.172 -165.5,-96.836 0,0 79,-41.164 303,-41.164 0,0 27.5,4.5 28.5,-12.5 1,-17 0,-201.952 0,-201.952 l -329.5,-0.048 6,9.5 c 0,0 -9,14 -9,16.5 0,2.5 -22,150.25 -22,150.25 0,0 -9.974,97.748 6.5,107.749 16.474,10.001 86.491,53.228 178.996,70.364 z"
             style="fill:#030b00;fill-opacity:1;fill-rule:nonzero;stroke:none"
             id="path318" /></g><g
           id="g320"
           transform="translate(410,33.9971)"><path
             d="M 0,0 12,-34.147"
             style="fill:none;stroke:#000407;stroke-width:2;stroke-linecap:butt;stroke-linejoin:miter;stroke-miterlimit:10;stroke-dasharray:none;stroke-opacity:1"
             id="path322" /></g><g
           id="g324"
           transform="translate(547.542,29.3311)"><path
             d="M 0,0 -7.542,-28.481"
             style="fill:none;stroke:#000407;stroke-width:2;stroke-linecap:butt;stroke-linejoin:miter;stroke-miterlimit:10;stroke-dasharray:none;stroke-opacity:1"
             id="path326" /></g><g
           id="g328"
           transform="translate(386.5,2.8496)"><path
             d="m 0,0 c 0,0 5.5,35.15 10,21.15 l 8,-22 z"
             style="fill:#d6b08c;fill-opacity:1;fill-rule:nonzero;stroke:none"
             id="path330" /></g><g
           id="g332"
           transform="translate(620.9238,9.9619)"><path
             d="m 0,0 c 0,-3.293 -2.67,-5.962 -5.962,-5.962 -3.293,0 -5.962,2.669 -5.962,5.962 0,3.292 2.669,5.962 5.962,5.962 C -2.67,5.962 0,3.292 0,0 Z"
             style="fill:none;stroke:#000407;stroke-width:2;stroke-linecap:butt;stroke-linejoin:miter;stroke-miterlimit:10;stroke-dasharray:none;stroke-opacity:1"
             id="path334" /></g><g
           id="g336"
           transform="translate(364.9443,93.3096)"><path
             d="m 0,0 c 0,0 87.723,-65.333 121.723,-60 34,5.333 48.839,9.536 124.464,99.823 l 11.536,65.533 c 0,0 -72.3,-72.573 -130.694,-59.509 C 78.556,56.69 -27.335,131.69 -43.82,173.69 c 0,0 -8.875,-55.688 4.626,-57.25 13.5,-1.561 38.75,3.894 38.75,-25.273 C -0.444,62 0,0 0,0"
             style="fill:#d6b08c;fill-opacity:1;fill-rule:nonzero;stroke:none"
             id="path338" /></g><g
           id="g340"
           transform="translate(597.3359,67.999)"><path
             d="M 0,0 C 0,0 -1.664,-21.499 0,-27.999"
             style="fill:#ead2ba;fill-opacity:1;fill-rule:nonzero;stroke:#02090f;stroke-width:3;stroke-linecap:butt;stroke-linejoin:miter;stroke-miterlimit:4;stroke-dasharray:none;stroke-opacity:1"
             id="path342" /></g><g
           id="g344"
           transform="translate(337.6094,215.5879)"><path
             d="m 0,0 -4.109,-214.588 32,0.048 V -12.588 C 27.891,-12.588 24.609,5.255 0,0"
             style="fill:#7d221d;fill-opacity:1;fill-rule:nonzero;stroke:none"
             id="path346" /></g><g
           id="g348"
           transform="translate(337.6094,215.5879)"><path
             d="m 0,0 -4.109,-214.588 32,0.048 V -12.588 C 27.891,-12.588 24.609,5.255 0,0 Z"
             style="fill:none;stroke:#050c11;stroke-width:3;stroke-linecap:butt;stroke-linejoin:miter;stroke-miterlimit:4;stroke-dasharray:none;stroke-opacity:1"
             id="path350" /></g><g
           id="g352"
           transform="translate(608.667,127.333)"><path
             d="M 0,0 14,71.333"
             style="fill:#ead2ba;fill-opacity:1;fill-rule:nonzero;stroke:#02090f;stroke-width:3;stroke-linecap:butt;stroke-linejoin:miter;stroke-miterlimit:4;stroke-dasharray:none;stroke-opacity:1"
             id="path354" /></g><g
           id="g356"
           transform="translate(427.334,526.666)"><path
             d="m 0,0 90.667,-2 43.333,0.667 58.667,-3.334 18,13.334 -232,7.333 z"
             style="fill:#d6b08c;fill-opacity:1;fill-rule:nonzero;stroke:none"
             id="path358" /></g><g
           id="g360"
           transform="translate(363.125,548.875)"><path
             d="m 0,0 -0.909,-22.179 c 0,0 269.857,16.623 346.451,-12.703 l 3.333,28.007 C 348.875,-6.875 212.209,17.887 0,0"
             style="fill:#00080a;fill-opacity:1;fill-rule:nonzero;stroke:none"
             id="path362" /></g><g
           id="g364"
           transform="translate(784.4414,334.1143)"><path
             d="m 0,0 c 0,0 149.059,-44.114 146.059,-68.114 0,0 4.5,42 -144.5,75 z"
             style="fill:#aa3430;fill-opacity:1;fill-rule:nonzero;stroke:none"
             id="path366" /></g><g
           id="g368"
           transform="translate(371,341)"><path
             d="m 0,0 c 0,0 -41,221 39,380 v -85 c 0,0 14,-89 24,-94 0,0 12,182 41,226 h 143 c 0,0 43,-82 43,-136 0,0 11,-91 -16,-213 L 259,37 c 0,0 52,77 65,243 0,0 31,-162 -26,-287 L 343.667,73.667 341,30.333 c 0,0 -25.482,-149.791 -32.64,-177.512 -0.255,-0.989 -0.486,-1.822 -0.693,-2.488 -6,-19.333 52.667,87.334 54,101.334 1.333,14 -2.001,-104 -39.334,-176 0,0 40.464,60 39.565,64 C 361,-156.333 409,-90 417,27 l 12,98 c 0,0 9,-150 9,-157 0,-7 66.572,242.121 -54.922,459 H -124 c 0,0 -127.39,-146.104 -68.893,-485.086 L -179,43 c 0,0 6,-94 47,-167 l 90.5,-10 c 0,0 -20.167,71.666 -6.833,213.333 L -23.667,1.666 c 0,0 23.334,-41.332 36.667,-56.666"
             style="fill:#1e1e1e;fill-opacity:1;fill-rule:nonzero;stroke:none"
             id="path370" /></g><g
           id="g372"
           transform="translate(162.8115,442.3335)"><path
             d="m 0,0 c 0,0 36.188,197.667 69.188,240.667 0,0 -32,-138 -14,-265 0,0 24,144 41,159 0,0 -13,-103.334 0,-134.667 0,0 5,118.667 69,240.667 0,0 -19,-116 0,-216 0,0 5,140 96,301 h 8 c 0,0 -28,-122.5 0,-215.5 0,0 6.944,133.157 23.472,157.578 0,0 14.529,53.922 19.528,57.922 h -228 C 84.188,325.667 -3.188,235.333 0,0"
             style="fill:#4d545a;fill-opacity:1;fill-rule:nonzero;stroke:none"
             id="path374" /></g><g
           id="g376"
           transform="translate(618.834,766.3799)"><path
             d="m 0,0 c 0,0 37.998,-68.691 43.582,-126.536 5.584,-57.844 1.633,-172.777 -20.392,-228.977 v -7.117 l 19.726,44.75 c 0,0 34.583,132.834 35.75,220.5 0,0 36.5,-158 14.5,-241.5 v -9.5 c 0,0 33.5,77.858 37,116.679 0,0 8,-117.679 0,-161.179 0,0 19.5,120.029 23.5,119.765 0,0 11.5,-143.765 0,-204.265 0,0 32.834,144.143 28.834,179.238 l 10,-147.571 12.166,88.833 c 0,0 19.5,245.26 -71.5,356.88 L -1.5,2.287"
             style="fill:#4d545a;fill-opacity:1;fill-rule:nonzero;stroke:none"
             id="path378" /></g><g
           id="g380"
           transform="translate(14,278.3135)"><path
             d="m 0,0 c 0,0 -11,-55.313 0,-104.313 l 9,-24.5 31,-32.833 c 0,0 54.5,-32.167 61.25,-32.167 0,0 52.5,-21.5 59,-26.75 l 31.5,-17.25 40.5,-40.453 86.25,-0.047 c 0,0 6,213 3.5,213 0,0 1,1.75 -10,1.75 -11,0 -78.5,0.75 -78.5,0.75 0,0 -52.75,2.5 -68.75,5 -16,2.5 -76.5,11.25 -77.25,11.75 C 86.75,-45.563 -3.615,-36.1 0,0"
             style="fill:#2a3539;fill-opacity:1;fill-rule:nonzero;stroke:none"
             id="path382" /></g><g
           id="g384"
           transform="translate(14,278.3135)"><path
             d="m 0,0 c 0,0 -11,-55.313 0,-104.313 l 9,-24.5 31,-32.833 c 0,0 54.5,-32.167 61.25,-32.167 0,0 52.5,-21.5 59,-26.75 l 31.5,-17.25 40.5,-40.453 86.25,-0.047 c 0,0 6,213 3.5,213 0,0 1,1.75 -10,1.75 -11,0 -78.5,0.75 -78.5,0.75 0,0 -52.75,2.5 -68.75,5 -16,2.5 -76.5,11.25 -77.25,11.75 C 86.75,-45.563 -3.615,-36.1 0,0 Z"
             style="fill:none;stroke:#030b11;stroke-width:3;stroke-linecap:butt;stroke-linejoin:miter;stroke-miterlimit:4;stroke-dasharray:none;stroke-opacity:1"
             id="path386" /></g><g
           id="g388"
           transform="translate(315.9424,170.8623)"><path
             d="m 0,0 c 0,-8.177 -6.628,-14.805 -14.804,-14.805 -8.176,0 -14.804,6.628 -14.804,14.805 0,8.176 6.628,14.804 14.804,14.804 C -6.628,14.804 0,8.176 0,0"
             style="fill:#0d1313;fill-opacity:1;fill-rule:nonzero;stroke:none"
             id="path390" /></g><g
           id="g392"
           transform="translate(627.5,37.5)"><path
             d="m 0,0 -1.5,-10 c 0,0 -6,-3.91 -14,-2.205 0,0 -13,-5.615 -10,-10.205 0,0 -0.828,-14.391 -4.664,-15.24 H -1.5 c 0,0 3.5,4.65 3,8.65 C 1,-25 -5,-2.503 0,0"
             style="fill:#887e75;fill-opacity:1;fill-rule:nonzero;stroke:none"
             id="path394" /></g><g
           id="g396"
           transform="translate(627.5,37.5)"><path
             d="m 0,0 -1.5,-10 c 0,0 -6,-3.91 -14,-2.205 0,0 -13,-5.615 -10,-10.205 0,0 -0.828,-14.391 -4.664,-15.24 H -1.5 c 0,0 3.5,4.65 3,8.65 C 1,-25 -5,-2.503 0,0 Z"
             style="fill:none;stroke:#000000;stroke-width:2;stroke-linecap:butt;stroke-linejoin:miter;stroke-miterlimit:4;stroke-dasharray:none;stroke-opacity:1"
             id="path398" /></g><g
           id="g400"
           transform="translate(704,0.0479)"><path
             d="m 0,0 11.508,55.286 c 0,0 20.587,115.614 18.873,129.141 0,0 -0.38,42.858 28.286,38.192 0,0 153.847,11.333 173.59,43.333 0,0 -0.757,-36.5 -10.757,-70.5 -10,-34 -40,-171.5 -54.5,-195.5 H -3.398"
             style="fill:#a83530;fill-opacity:1;fill-rule:nonzero;stroke:#000102;stroke-width:3;stroke-linecap:butt;stroke-linejoin:miter;stroke-miterlimit:4;stroke-dasharray:none;stroke-opacity:1"
             id="path402" /></g><g
           id="g404"
           transform="translate(762.667,221)"><path
             d="m 0,0 c 0,0 -15.334,-161.334 -30.667,-220 l 140,-0.15 c 0,0 79.332,252.816 64.333,267.483 0,0 -8.333,-14.666 -23.666,-16.666 0,0 -50.667,-23.999 -148,-29.333"
             style="fill:#2a3539;fill-opacity:1;fill-rule:nonzero;stroke:#000305;stroke-width:3;stroke-linecap:butt;stroke-linejoin:miter;stroke-miterlimit:4;stroke-dasharray:none;stroke-opacity:1"
             id="path406" /></g></g></g><text
       transform="matrix(1,0,0,-1,824.0781,692.3916)"
       style="font-variant:normal;font-weight:normal;font-stretch:normal;font-size:60px;font-family:Opificio;-inkscape-font-specification:Opificio;writing-mode:lr-tb;fill:#000000;fill-opacity:1;fill-rule:nonzero;stroke:none"
       id="text410"><tspan
         x="0 31.98 39.299999 73.980003 127.98 164.28"
         y="0"
         sodipodi:role="line"
         id="tspan408">Blow91</tspan></text></g></svg>
